**ABCDEFGHIJKLMNOPQRSTUVWXYZabcdefghijklmnopqrstuvwxyz**************************
**PARASOLID !"#$%&'()*+,-./:;<=>?@[\]^_`{|}~0123456789**************************
**PART1;
MC=x86;
MC_MODEL=x86 Family 15 Model 127 Stepping 2, AuthenticAMD;
MC_ID=unknown;
OS=Windows_NT;
OS_RELEASE=unknown;
FRU=Parasolid Version 24.0, build 216,  1-13-2012;
APPL=SolidWorks 2012-2012159;
SITE=;
USER=unknown;
FORMAT=text;
GUISE=transmit;
KEY=Knob;
FILE=Knob.x_t;
DATE=Sun Apr 16 15:36:23 2017;
**PART2;
SCH=SCH_2400216_20000;
USFLD_SIZE=0;
**PART3;
**END_OF_HEADER*****************************************************************
T51 : TRANSMIT FILE created by modeller version 240021623 SCH_2400216_20000_1300
6186 0 12 27 CCCCCCCCCCCCCCCCCCCCCCCA16 index_map_offset0 0 1 dA9 index_map82 0
 A17 node_id_index_map82 0 A20 schema_embedding_map82 0 Z1 275 0 2 0 0 0 0 1e3 1
e-8 0 3 0 1 0 1 1 4 5 6 0 7 8 0 0 0 0 0 70 11 CI9 list_type0 0 1 uI10 notransmit
0 0 1 lCCCDCCDI12 finger_index0 0 1 dI12 finger_block1012 0 CZ2 0 4 T1 0 0 2 20
 1 9 9 13 255 4 29 0 1 0 10 0 0 11 0 52 255 5 196 0 10 12 0 0 -0 0 0 0 1 0 .004
 .601815023152049 .798635510047292 0 0 1 31 255 6 208 0 13 14 0 0 +0 .0040163133
4727407 0 0 -1 0 0 0 -1 .0070265091893203 19 255 7 7 0 1 11 0 15 V16 255 8 168 0
 ?16 0 17 14 0 0 1 17 255 16 0 18 16 16 0 19 8 0 0 +16 17 162 0 ?20 8 13 21 0 0
 1 31 14 171 0 8 21 6 0 +0 .01014834168329546 0 0 -1 0 0 0 -1 .0169910552353551
 31 21 165 0 17 22 14 0 +0 .012 0 0 1 0 0 0 1 .01646695780969075 31 22 23 0 23 2
4 21 0 +0 0 0 0 1 0 0 0 1 .004 16 23 18 0 ?25 13 26 22 0 0 1 31 24 123 0 27 28 2
2 0 +0 0 0 0 -1 0 0 0 -1 .0015 16 27 104 0 ?29 26 0 24 0 0 1 31 28 124 0 26 0 24
 0 +0 .01 0 0 -1 0 0 0 -1 .0015 16 26 101 0 ?30 23 27 28 0 0 1 17 30 0 31 30 30
 0 32 26 0 0 +15 255 31 114 0 30 33 0 17 32 0 34 32 32 0 30 26 0 0 -15 34 110 0
 32 35 36 14 255 35 107 37 ?33 38 34 4 39 -0 0 33 38 15 15 36 111 0 29 35 0 17 2
9 0 36 29 29 0 40 27 0 0 +17 40 0 41 40 40 0 29 27 0 0 -15 41 95 0 40 42 43 14 4
2 16 44 ?38 10 41 4 45 -0 0 38 10 15 15 43 17 0 46 42 0 17 46 0 43 46 46 0 25 23
 0 0 -17 25 0 47 25 25 0 46 23 0 0 +15 47 26 0 25 10 48 14 10 25 49 ?42 0 47 4 5
 -0 0 42 0 15 15 48 137 0 50 10 0 17 50 0 48 50 50 0 51 13 0 0 +17 51 0 52 51 51
 0 50 13 0 0 -16 13 136 0 ?50 17 23 6 0 0 1 15 52 149 0 51 53 0 14 53 148 54 ?55
 33 18 4 56 +0 0 55 33 15 81 255 1 54 272 57 53 58 0 49 59 60 14 55 180 59 ?0 53
 61 4 12 +0 0 0 53 15 14 33 112 62 ?53 35 31 4 63 +0 0 53 35 15 15 18 169 0 16 5
3 52 52 56 155 0 53 45 12 0 +0 .012 0 0 1 0 .02 .851658316704545 .52409742566433
3 0 0 1 13 15 8 0 0 0 0 0 0 7 10 50 255 45 22 0 42 64 56 0 +0 0 0 0 1 0 0 0 1 54
 255 12 187 0 55 56 5 0 +0 .011 0 0 1 0 .01646695780969075 .001 0 0 1 50 64 79 0
 38 39 45 0 +0 .012 0 0 1 0 0 0 1 14 38 69 65 ?35 42 66 4 64 +0 0 35 42 15 51 25
5 39 120 0 35 63 64 0 +0 .01 0 0 -1 0 .0015 0 0 -1 50 63 122 0 33 0 39 0 +0 .01
 0 0 -1 0 0 0 -1 81 1 65 275 57 38 67 0 62 0 68 15 66 163 0 20 38 0 17 20 0 66 2
0 20 0 69 17 0 0 +17 69 0 70 69 69 0 20 17 0 0 -15 70 182 0 69 55 0 80 255 1 57
 71 72 9000 1 1 1 1 1 1 1 1 0 FFFFTFTFFFFFFF1 81 1 67 248 73 38 0 65 74 75 76 81
 1 62 274 57 33 77 0 59 65 78 82 255 1 68 494469378 81 1 77 250 73 33 0 62 75 58
 79 81 1 59 273 57 55 80 0 54 62 81 82 1 78 505544960 81 1 80 252 73 55 0 59 58
 0 82 82 1 81 516555010 80 1 73 0 83 8001 0 0 0 0 3 5 0 0 0 FFFFTFTFFFFFFF2 81 1
 58 251 73 53 0 54 77 80 84 83 255 3 82 .792156862745098 .819607843137255 .93333
3333333333 83 3 84 .792156862745098 .819607843137255 .933333333333333 79 255 15
 83 SDL/TYSA_COLOUR81 1 75 249 73 35 0 37 67 77 85 83 3 79 .792156862745098 .819
607843137255 .933333333333333 81 1 37 269 57 35 75 0 0 44 86 83 3 85 .7921568627
45098 .819607843137255 .933333333333333 81 1 44 270 57 42 74 0 37 49 87 82 1 86
 507511040 81 1 74 247 73 42 0 44 88 67 89 81 1 49 271 57 10 88 0 44 54 90 82 1
 87 485818624 81 1 88 246 73 10 0 49 0 74 91 82 1 90 486342921 83 3 91 .79215686
2745098 .819607843137255 .933333333333333 83 3 89 .792156862745098 .819607843137
255 .933333333333333 83 3 76 .792156862745098 .819607843137255 .933333333333333
 79 14 72 SWEntUnchanged15 61 181 0 19 55 70 17 19 0 61 19 19 0 16 8 0 0 -82 1 6
0 512819465 19 11 30 0 1 0 7 4 S74 4 CI16 index_map_offset0 0 1 dCCZ20 9 2 0 0 6
5 80 0 0 0 0 0 0 0 0 0 0 0 0 0 0 0 0 0 0 1 0 
